<svg xmlns="http://www.w3.org/2000/svg" version="1.1" xmlns:xlink="http://www.w3.org/1999/xlink" xmlns:svgjs="http://svgjs.dev/svgjs" width="2700" height="2200" preserveAspectRatio="none" viewBox="0 0 2700 2200"><g mask="url(&quot;#SvgjsMask1136&quot;)" fill="none"><rect width="2700" height="2200" x="0" y="0" fill="rgba(255, 255, 255, 1)"></rect><path d="M 0,492 C 135,507 405,561.4 675,567 C 945,572.6 1080,452.2 1350,520 C 1620,587.8 1755,979 2025,906 C 2295,833 2565,305.2 2700,155L2700 2200L0 2200z" fill="rgba(48, 196, 104, 1)"></path><path d="M 0,1899 C 180,1837.4 540,1625.4 900,1591 C 1260,1556.6 1440,1775.8 1800,1727 C 2160,1678.2 2520,1423 2700,1347L2700 2200L0 2200z" fill="rgba(255, 255, 255, 1)"></path></g><defs><mask id="SvgjsMask1136"><rect width="2700" height="2200" fill="#ffffff"></rect></mask></defs></svg>